<?xml version="1.0" encoding="UTF-8"?>
<svg id="Layer_1" data-name="Layer 1" xmlns="http://www.w3.org/2000/svg" xmlns:xlink="http://www.w3.org/1999/xlink" viewBox="0 0 907.8 311.98">
  <defs>
    <style>
      .cls-1 {
        fill: url(#linear-gradient);
        fill-opacity: .8;
      }
    </style>
    <linearGradient id="linear-gradient" x1="415.98" y1="-2075.26" x2="514.43" y2="-2704.29" gradientTransform="translate(0 -2069.32) scale(1 -1)" gradientUnits="userSpaceOnUse">
      <stop offset="0" stop-color="#fff"/>
      <stop offset="1" stop-color="#fff" stop-opacity="0"/>
    </linearGradient>
  </defs>
  <path class="cls-1" d="M148.86,0c44.64,0,84.32,38.67,111.74,108.9,14.26,36.52,24.75,79.92,30.97,127.13.56,4.21,1.03,8.5,1.52,12.77.16.26.25.51.22.71,0,0,3.65,22.82,4.43,62.47h-.41c-5.42-4.45-69.33-54.66-175.27-40.12,1.6-17.93,3.8-35.37,6.64-52.09.15-.85.31-1.68.46-2.53,41.55-1.25,77.92,3.57,105.81,9.9-.1-.66-.19-1.34-.3-2-5.73-35.7-14.19-68.38-25.1-96.31-17.83-45.67-41.1-74.04-60.71-74.04-19.61,0-42.88,28.38-60.71,74.04-4.32,11.05-8.25,22.83-11.77,35.25-4.95,17.41-9.11,36.08-12.44,55.69-4.92,28.97-7.99,60.03-9.12,92.22H0c2.53-76.38,15.48-147.66,37.12-203.09C64.54,38.67,104.23,0,148.86,0ZM818.63,103.91c17.86,0,32.97,3.38,45.35,10.14,12.37,6.76,22.06,15.57,29.08,26.41,7.01,10.85,11.42,22.26,13.2,34.25l-22.58,4.59c-1.28-9.95-4.47-19.07-9.57-27.36-5.1-8.29-12.24-14.92-21.43-19.9-9.19-4.98-20.54-7.46-34.06-7.46s-25.64,3.13-36.36,9.38c-10.71,6.26-19.2,15.06-25.45,26.41-6.25,11.36-9.38,24.82-9.38,40.37v3.06c0,15.56,3.12,29.03,9.38,40.37,6.25,11.36,14.73,20.16,25.45,26.41,10.72,6.25,22.83,9.38,36.36,9.38,20.41,0,35.97-5.29,46.69-15.88,10.71-10.59,17.35-23.54,19.9-38.84l22.58,4.59c-2.3,12-7.08,23.41-14.35,34.25-7.27,10.85-17.1,19.65-29.47,26.4-12.38,6.76-27.49,10.14-45.35,10.14s-34.25-3.89-48.41-11.67c-14.16-7.78-25.32-18.95-33.49-33.49-8.17-14.54-12.24-31.63-12.24-51.28v-3.83c0-19.9,4.08-37.06,12.24-51.47,8.16-14.41,19.33-25.51,33.49-33.29,14.16-7.78,30.29-11.67,48.41-11.67ZM606.74,295.26h-25.64l-22.96-71.18h-121.7l-22.96,71.18h-25.64L475.48,27.37h43.63l87.64,267.89ZM724.21,129.93h-24.49c-14.04,0-25.26,3.96-33.68,11.86-8.42,7.91-12.63,20.28-12.63,37.12v116.34h-22.96V109.26h22.2v23.34h4.59c3.57-8.42,8.86-14.54,15.88-18.37,7.01-3.83,16.77-5.74,29.28-5.74h21.81v21.43ZM443.33,201.88h107.92l-51.66-159.96h-4.59l-51.67,159.96Z"/>
</svg>